<?xml version="1.0" standalone="no"?>
<!DOCTYPE svg PUBLIC "-//W3C//DTD SVG 20010904//EN"
 "http://www.w3.org/TR/2001/REC-SVG-20010904/DTD/svg10.dtd">
<svg version="1.0" xmlns="http://www.w3.org/2000/svg"
 width="500.000000pt" height="500.000000pt" viewBox="0 0 500.000000 500.000000"
 preserveAspectRatio="xMidYMid meet">

<g transform="translate(0.000000,500.000000) scale(0.100000,-0.100000)"
fill="#000000" stroke="none">
<path d="M1022 3690 c3 -31 7 -35 33 -38 103 -9 168 -25 197 -50 62 -52 63
-59 68 -482 l5 -385 42 -3 43 -3 2 375 3 375 124 -322 c69 -177 135 -346 147
-374 l23 -53 175 0 c124 0 176 3 176 11 0 8 -299 804 -364 969 -5 13 -53 15
-342 15 l-335 0 3 -35z"/>
<path d="M3595 3720 l-259 -5 -178 -475 c-98 -261 -180 -483 -184 -492 -4 -15
1 -18 36 -18 50 0 34 -33 196 405 64 176 121 324 126 330 4 5 8 -158 8 -363
l0 -372 175 0 175 0 0 360 c0 395 5 442 52 496 33 37 68 50 173 61 l70 8 3 38
3 37 -68 -2 c-37 -1 -185 -5 -328 -8z"/>
<path d="M1162 2538 l1 -63 6 50 6 50 14 -43 c8 -24 18 -45 22 -48 5 -2 17 15
28 38 l19 43 1 -42 c1 -67 21 -51 21 17 0 72 -20 82 -40 19 -8 -22 -17 -42
-21 -45 -4 -2 -15 16 -25 41 -9 25 -21 45 -25 45 -5 0 -8 -28 -7 -62z"/>
<path d="M1362 2555 c-1 -29 3 -56 10 -63 18 -18 56 -14 68 7 13 25 13 101 0
101 -5 0 -10 -23 -10 -50 0 -87 -56 -79 -63 8 l-3 47 -2 -50z"/>
<path d="M1537 2593 c-18 -17 -5 -44 28 -57 25 -11 33 -19 29 -30 -7 -19 -35
-21 -52 -4 -9 9 -12 9 -12 0 0 -17 25 -25 55 -18 39 10 33 44 -11 62 -19 8
-34 20 -31 27 5 17 38 21 48 6 4 -7 11 -10 14 -7 4 4 4 11 0 17 -7 12 -58 15
-68 4z"/>
<path d="M1692 2540 c0 -39 3 -55 7 -41 9 34 27 37 47 7 9 -14 21 -26 26 -26
6 0 -1 15 -16 34 l-25 34 20 26 c11 14 17 26 14 26 -4 0 -16 -11 -27 -25 -25
-32 -36 -32 -41 3 -2 15 -4 -2 -5 -38z"/>
<path d="M1887 2593 c-18 -28 -45 -113 -37 -113 6 0 10 7 10 15 0 10 10 15 30
15 18 0 33 -6 36 -15 4 -8 10 -15 15 -15 8 0 -27 97 -42 113 -4 5 -9 5 -12 0z
m23 -55 c0 -10 -7 -18 -15 -18 -16 0 -19 17 -9 45 5 13 8 14 15 3 5 -7 9 -21
9 -30z"/>
<path d="M2020 2540 c0 -33 4 -60 10 -60 6 0 10 21 10 48 l0 47 21 -33 c12
-18 24 -30 27 -28 7 8 -46 86 -58 86 -6 0 -10 -27 -10 -60z"/>
<path d="M2099 2555 c-1 -25 -2 -50 -3 -57 -1 -6 5 -13 12 -15 9 -4 12 12 12
56 0 70 -19 84 -21 16z"/>
<path d="M2312 2540 c12 -33 25 -60 29 -60 4 0 14 19 22 43 8 23 18 50 22 60
4 9 3 17 -3 17 -5 0 -15 -20 -22 -45 -7 -25 -16 -45 -20 -45 -4 0 -13 20 -20
45 -7 25 -16 45 -21 45 -4 0 2 -27 13 -60z"/>
<path d="M2485 2563 c-9 -20 -18 -48 -21 -62 -4 -22 -4 -23 6 -8 14 22 70 24
70 2 0 -8 4 -15 9 -15 5 0 0 27 -12 60 -12 33 -25 60 -29 60 -4 0 -15 -17 -23
-37z m39 -35 c-7 -10 -34 -10 -34 0 0 4 3 18 7 31 l6 23 13 -23 c7 -13 10 -27
8 -31z"/>
<path d="M2636 2585 c-8 -22 -1 -32 35 -50 16 -9 29 -20 29 -26 0 -17 -32 -23
-54 -9 -19 12 -20 12 -7 -4 20 -24 65 -17 69 11 2 16 -5 26 -27 38 -17 8 -31
22 -31 30 0 18 31 20 49 3 11 -11 13 -10 9 2 -7 22 -64 25 -72 5z"/>
<path d="M2798 2593 c20 -4 22 -10 22 -59 0 -30 5 -54 10 -54 6 0 10 24 10 54
0 49 2 55 23 59 12 2 -3 4 -33 4 -30 0 -45 -2 -32 -4z"/>
<path d="M2950 2541 c0 -34 4 -61 10 -61 6 0 10 11 10 25 0 16 6 25 15 25 9 0
21 -11 27 -25 6 -14 15 -25 20 -25 5 0 2 14 -7 30 -10 19 -11 30 -5 30 6 0 10
12 8 28 -3 23 -8 27 -40 30 l-38 3 0 -60z m65 24 c0 -13 -8 -21 -22 -23 -19
-3 -23 1 -23 23 0 22 4 26 23 23 14 -2 22 -10 22 -23z"/>
<path d="M3135 2563 c-9 -20 -18 -48 -21 -62 -4 -22 -4 -23 6 -8 14 22 70 24
70 2 0 -8 4 -15 9 -15 5 0 0 27 -12 60 -12 33 -25 60 -29 60 -4 0 -15 -17 -23
-37z m39 -35 c-7 -10 -34 -10 -34 0 0 4 3 18 7 31 l6 23 13 -23 c7 -13 10 -27
8 -31z"/>
<path d="M3292 2543 l-2 -63 38 2 c36 1 36 1 5 5 -31 4 -32 5 -36 61 l-3 57
-2 -62z"/>
<path d="M3467 2593 c-18 -28 -45 -113 -37 -113 6 0 10 7 10 15 0 10 10 15 30
15 18 0 33 -6 36 -15 4 -8 10 -15 15 -15 8 0 -27 97 -42 113 -4 5 -9 5 -12 0z
m23 -55 c0 -10 -7 -18 -15 -18 -16 0 -19 17 -9 45 5 13 8 14 15 3 5 -7 9 -21
9 -30z"/>
<path d="M3610 2568 c11 -18 20 -45 20 -60 0 -16 5 -28 10 -28 6 0 10 11 10
25 0 15 7 40 16 56 8 17 13 33 10 36 -3 3 -11 -6 -17 -21 -15 -32 -23 -33 -37
-1 -6 14 -16 25 -22 25 -5 0 -1 -15 10 -32z"/>
<path d="M3797 2593 c-18 -28 -45 -113 -37 -113 6 0 10 7 10 15 0 10 10 15 30
15 18 0 33 -6 36 -15 4 -8 10 -15 15 -15 8 0 -27 97 -42 113 -4 5 -9 5 -12 0z
m23 -55 c0 -10 -7 -18 -15 -18 -16 0 -19 17 -9 45 5 13 8 14 15 3 5 -7 9 -21
9 -30z"/>
<path d="M1318 1793 c-3 -473 -4 -489 -24 -533 -37 -79 -97 -114 -216 -127
l-58 -6 0 -36 0 -36 365 0 365 0 0 38 c0 36 -1 37 -37 37 -60 0 -165 26 -205
50 -46 27 -72 69 -87 138 -7 34 -11 213 -11 507 l0 455 -45 0 -44 0 -3 -487z"/>
<path d="M1893 2248 c7 -18 116 -300 243 -626 l229 -593 29 3 c33 3 -9 -99
349 861 l145 388 -45 -3 -45 -3 -136 -362 c-74 -200 -138 -363 -141 -363 -3 0
-68 163 -143 363 l-136 362 -181 3 -181 2 13 -32z"/>
<path d="M3340 1838 c-1 -244 -5 -473 -9 -511 -18 -134 -61 -173 -213 -191
l-88 -10 0 -36 0 -35 480 0 480 0 0 36 0 36 -67 7 c-145 13 -201 50 -222 144
-7 35 -11 212 -11 527 l0 475 -175 0 -175 0 0 -442z"/>
</g>
</svg>
